<?xml version="1.0" encoding="UTF-8"?>
<svg height="100%" width="100%" preserveAspectRatio="none" fill="none" xmlns="http://www.w3.org/2000/svg" viewBox="0 0 251.48 102.7">
  <defs>
    <style>
      .cls-1 {
        fill: #d9d9d9;
        stroke-width: 0px;
      }
    </style>
  </defs>
  <path class="cls-1" d="m233.08,1.71V0h0v1.71Zm0,99.27v1.71h0v-1.71Zm-221.07-1.34l.33-1.64-.19-.08h-.2s.05,1.72.05,1.72Zm-10.44-13.42l.83,1.2.48-.72m0,0l-.19-.96-1.12.49m-.4-65.69H0h1.16ZM233.08,1.71v1.71c4.54,0,8.59,2.01,11.49,5.18,2.9,3.17,4.58,7.41,4.58,11.94h2.33c0-5.87-2.18-11.04-5.52-14.69C242.63,2.2,238.07,0,233.08,0v1.71Zm17.24,18.83h-1.16v61.62h2.33V20.54h-1.16Zm0,61.62h-1.16c0,4.53-1.68,8.77-4.58,11.94-2.9,3.17-6.96,5.18-11.49,5.18v3.42c4.98,0,9.54-2.2,12.88-5.85,3.34-3.65,5.52-8.82,5.52-14.69h-1.16Zm-17.24,18.83v-1.71H18.4v3.42h214.68v-1.71Zm-214.68,0v-1.71c-2.15,0-4.19-.46-6.06-1.27l-.33,1.64-.33,1.64c2.08.91,4.35,1.41,6.72,1.41v-1.71ZM.28,85.72c.05.33.11.66.18.99l1.12-.49,1.12-.49c-.23-1.16-.36-2.36-.36-3.58H0c0,1.22.1,2.41.28,3.57m.89-3.57h1.16V20.54H0v61.62h1.16Zm0-61.62h1.16c0-4.53,1.68-8.77,4.58-11.94,2.9-3.17,6.96-5.18,11.49-5.18V0c-4.99,0-9.54,2.2-12.88,5.85C2.18,9.5,0,14.67,0,20.54h1.16ZM18.4,1.71v1.71h214.68V0H18.4v1.71Z"/>
</svg>